<?xml version="1.0" standalone="no"?>
<!DOCTYPE svg PUBLIC "-//W3C//DTD SVG 20010904//EN"
 "http://www.w3.org/TR/2001/REC-SVG-20010904/DTD/svg10.dtd">
<svg version="1.0" xmlns="http://www.w3.org/2000/svg"
 width="510.000000pt" height="510.000000pt" viewBox="0 0 510.000000 510.000000"
 preserveAspectRatio="xMidYMid meet">
<metadata>
Created by potrace 1.14, written by Peter Selinger 2001-2017
</metadata>
<g transform="translate(0.000000,510.000000) scale(0.100000,-0.100000)"
fill="#000000" stroke="none">
<path d="M2440 4882 c0 -4 -26 -9 -57 -10 -32 -2 -63 -8 -70 -14 -7 -6 -13 -7
-13 -4 0 4 -14 -2 -30 -14 -17 -12 -36 -23 -43 -24 -7 -1 -17 -5 -24 -9 -6 -4
-14 -3 -18 3 -4 7 -12 7 -26 0 -14 -8 -19 -7 -19 2 0 10 -2 10 -8 1 -4 -7 -26
-15 -47 -19 -22 -3 -52 -12 -67 -20 -15 -8 -34 -14 -43 -14 -9 0 -14 -4 -10
-9 3 -5 -4 -13 -16 -16 -12 -4 -29 -14 -40 -23 -17 -15 -26 -18 -74 -25 -50
-8 -186 -78 -178 -92 4 -5 3 -7 -2 -3 -11 10 -47 -11 -40 -23 4 -5 2 -9 -3 -9
-5 0 -17 -12 -27 -26 -11 -18 -12 -24 -4 -18 11 6 12 5 2 -8 -7 -8 -12 -17
-10 -19 2 -2 -7 -14 -20 -26 -13 -12 -23 -20 -23 -17 0 3 -13 -4 -30 -16 -16
-12 -30 -19 -30 -16 0 3 -9 -2 -19 -11 -35 -32 -51 -44 -51 -38 0 3 -18 -12
-41 -35 -22 -22 -45 -38 -50 -34 -5 3 -8 2 -7 -3 2 -4 -6 -17 -17 -29 -24 -25
-59 -86 -57 -97 1 -4 -4 -15 -13 -23 -8 -9 -18 -27 -22 -42 -3 -15 -11 -30
-17 -34 -6 -4 -11 -24 -12 -45 -1 -21 -3 -40 -4 -43 -1 -3 -2 -8 -2 -11 0 -3
-16 -14 -36 -24 -20 -11 -40 -24 -44 -30 -5 -6 -8 -6 -8 0 0 15 -34 -38 -37
-59 -2 -11 2 -23 8 -27 16 -9 14 -160 -1 -199 -1 -3 -1 -9 0 -15 8 -39 10 -53
10 -75 0 -45 -4 -70 -11 -70 -6 0 -13 -29 -25 -108 -3 -18 -2 -41 2 -50 4 -9
9 -26 11 -36 2 -11 8 -25 14 -32 5 -7 6 -15 2 -17 -16 -10 -14 -74 2 -91 9 -8
16 -19 15 -23 0 -18 12 -43 21 -43 5 0 9 -5 9 -10 0 -6 16 -24 35 -41 19 -17
43 -50 53 -73 10 -22 34 -55 54 -72 31 -27 46 -49 54 -79 1 -5 10 -28 19 -50
19 -43 58 -215 51 -223 -3 -2 -1 -15 4 -28 5 -13 5 -26 1 -28 -10 -7 -8 -106
2 -123 4 -6 3 -14 -3 -18 -17 -10 -12 -107 8 -136 20 -30 52 -63 52 -54 0 4 7
-1 16 -9 8 -9 22 -16 30 -16 8 0 14 -5 14 -10 0 -6 4 -9 9 -8 15 5 52 -46 48
-64 -3 -11 0 -18 10 -18 8 0 12 -4 9 -8 -2 -4 8 -16 23 -26 15 -10 37 -36 49
-57 12 -20 31 -40 42 -44 11 -3 20 -11 20 -16 0 -6 5 -7 10 -4 6 3 10 -1 10
-9 0 -9 3 -16 8 -16 4 0 15 -17 25 -37 22 -48 39 -75 55 -88 7 -6 15 -22 17
-35 6 -41 10 -54 19 -69 7 -11 6 -12 -5 -5 -9 5 -8 -2 5 -20 10 -16 12 -25 5
-21 -7 5 -6 -1 4 -14 8 -13 13 -30 10 -37 -3 -8 0 -20 6 -28 6 -7 8 -16 5 -19
-3 -3 -2 -12 2 -19 9 -14 9 -15 19 -63 3 -16 11 -35 17 -42 7 -9 7 -13 0 -13
-7 0 -8 -10 -2 -29 22 -77 -5 -341 -33 -324 -6 4 -8 0 -4 -10 3 -10 2 -17 -3
-17 -6 0 -10 -5 -10 -11 0 -6 -9 -22 -20 -36 -11 -14 -20 -22 -20 -19 0 4 -12
-6 -26 -23 -14 -17 -32 -31 -40 -31 -8 0 -14 -4 -14 -10 0 -5 -5 -10 -11 -10
-6 0 -30 -13 -53 -30 -24 -16 -46 -26 -50 -23 -3 4 -6 2 -6 -4 0 -12 -90 -69
-102 -65 -5 1 -8 -2 -8 -7 0 -5 -9 -13 -20 -16 -11 -4 -18 -10 -15 -15 5 -8
-32 -24 -50 -20 -5 1 -7 -2 -3 -6 8 -8 -91 -80 -104 -76 -5 1 -8 -2 -8 -7 0
-9 -106 -91 -118 -91 -4 0 -19 -11 -34 -25 -36 -33 -179 -125 -195 -125 -7 0
-13 -4 -13 -10 0 -5 -7 -10 -15 -10 -16 0 -96 -37 -105 -49 -3 -3 -14 -8 -25
-9 -11 -2 -22 -7 -25 -11 -3 -3 -27 -18 -55 -31 -27 -14 -52 -28 -53 -33 -2
-4 -8 -5 -13 -1 -5 3 -9 0 -9 -6 0 -6 -4 -9 -9 -6 -5 3 -22 -1 -37 -9 -26 -13
221 -15 2211 -15 l2240 0 0 25 c0 14 -2 25 -5 25 -3 0 -7 15 -8 33 -2 17 -4
44 -6 59 -2 16 0 28 4 28 6 0 6 17 -5 140 -3 36 -7 90 -8 121 -2 31 -6 60 -8
65 -3 5 -4 46 -4 91 0 46 -2 83 -5 83 -8 0 -5 203 3 216 3 6 3 14 0 18 -4 4
-8 17 -10 29 -9 67 -16 86 -37 102 -13 10 -27 17 -31 16 -4 -2 -11 2 -14 8 -4
6 -19 12 -34 13 -15 1 -27 5 -27 8 0 3 -15 5 -32 5 -18 0 -37 2 -43 4 -12 6
-54 11 -112 14 -24 1 -43 7 -43 12 0 7 -3 7 -8 0 -9 -12 -32 -18 -32 -7 0 4
-34 6 -76 5 -55 -1 -83 2 -100 14 -13 8 -24 13 -24 9 0 -3 -9 2 -20 12 -12 9
-22 15 -24 12 -2 -3 -10 1 -18 8 -15 12 -47 23 -75 24 -7 1 -13 4 -13 8 0 6
-29 10 -107 14 -18 0 -33 4 -33 7 0 15 -143 27 -345 30 -82 1 -157 5 -166 10
-8 4 -26 10 -40 12 -28 5 -78 25 -64 27 6 0 4 4 -3 8 -7 5 -14 22 -16 38 -3
16 -11 47 -19 69 -13 35 -14 59 -9 115 1 9 16 24 34 35 41 24 155 139 163 165
3 11 11 20 16 20 6 0 8 4 5 9 -3 4 3 16 14 26 11 10 17 21 15 25 -3 4 2 26 10
49 8 23 11 41 7 41 -4 0 -2 4 4 8 20 13 37 178 22 220 -5 13 -4 22 3 22 6 0 7
6 2 13 -4 6 -9 18 -10 24 -2 7 -4 19 -6 25 -2 7 -7 29 -11 48 -5 19 -12 40
-16 45 -5 6 -9 15 -10 20 -1 6 -6 20 -11 33 -5 13 -9 28 -9 33 0 5 -4 9 -9 9
-5 0 -13 9 -16 21 -4 12 -18 37 -31 56 -23 34 -26 70 -10 113 5 15 12 44 23
105 3 17 6 54 7 82 0 29 4 53 8 53 4 0 5 17 3 38 -5 41 -16 174 -18 210 -1 12
-4 22 -8 22 -3 0 -5 16 -3 35 3 38 31 78 97 135 69 59 129 124 138 148 5 13
18 26 29 29 11 3 20 9 20 14 0 5 7 9 15 9 9 0 18 7 21 15 4 8 10 13 14 10 4
-2 23 12 42 33 29 32 34 44 34 85 -1 31 -6 51 -16 57 -8 5 -11 10 -5 10 5 0
-1 7 -13 16 -21 15 -21 16 -5 47 18 33 25 147 10 147 -5 0 -8 10 -7 23 4 44 0
78 -9 73 -4 -3 -8 2 -7 12 1 22 -46 142 -56 142 -5 0 -8 9 -8 21 0 11 -4 17
-10 14 -5 -3 -10 -1 -10 6 0 14 -60 69 -76 69 -6 0 -19 9 -29 20 -10 11 -24
20 -31 20 -7 0 -18 9 -24 20 -6 11 -17 20 -25 20 -8 0 -15 8 -15 17 0 9 -3 14
-6 10 -7 -6 -25 7 -52 37 -9 10 -23 24 -30 32 -7 8 -11 14 -7 14 18 0 -109
106 -170 142 -38 23 -73 45 -76 50 -3 6 -9 9 -13 8 -4 -1 -30 8 -59 21 -29 12
-56 24 -62 25 -48 13 -63 16 -80 19 -44 9 -50 11 -60 17 -6 4 -29 9 -50 12
-41 6 -80 13 -80 16 0 1 -7 3 -15 5 -8 2 -28 6 -45 10 -16 4 -49 8 -72 8 -24
0 -43 3 -43 6 0 3 -36 6 -80 6 -44 1 -80 -2 -80 -6 0 -4 -13 -4 -30 1 -21 6
-30 5 -30 -3 0 -8 -3 -8 -12 1 -16 16 -51 16 -42 0 6 -10 4 -10 -7 0 -15 13
-29 16 -29 4z"/>
</g>
</svg>
